<?xml version="1.0" encoding="UTF-8"?>
<svg width="210px" height="26px" viewBox="0 0 210 26" version="1.1" xmlns="http://www.w3.org/2000/svg" xmlns:xlink="http://www.w3.org/1999/xlink">
    <!-- Generator: Sketch 52.3 (67297) - http://www.bohemiancoding.com/sketch -->
    <title>logos-blitz</title>
    <desc>Created with Sketch.</desc>
    <g id="Page-1" stroke="none" stroke-width="1" fill="none" fill-rule="evenodd">
        <g id="Group-2" transform="translate(0.000000, 3.000000)" fill="#DFDFDF">
            <path d="M-1.13686838e-13,17.33268 C0.0333991269,17.1541957 0.0667741737,16.9756876 0.105302366,16.7697956 C0.292477142,16.7377166 0.49816953,16.7146225 0.697384365,16.6657413 C1.05449255,16.5780126 1.41191378,16.4875431 1.76141264,16.3745515 C2.13949461,16.2523128 2.36998952,15.9852656 2.47167987,15.5996261 C2.5936216,15.1371734 2.68462038,14.6714555 2.70321023,14.1928441 C2.79261972,11.8910668 2.88195696,9.58926562 2.9734855,7.28755979 C3.01326586,6.28750928 3.07076919,5.28795926 3.09641451,4.28759892 C3.11288532,3.64525576 3.10428871,3.00164946 2.99494089,2.36319105 C2.9496221,2.09876551 2.81164301,1.93663058 2.56660371,1.83882054 C2.10221859,1.65340091 1.61416271,1.56092942 1.12719043,1.46195157 C0.932815702,1.42246052 0.739693137,1.3769636 0.534121149,1.33156201 L0.534121149,0.356631329 C0.689991768,0.345358388 0.847355355,0.322026021 1.0042855,0.324623802 C1.90288335,0.339471672 2.8016016,0.353127899 3.69981417,0.381512832 C4.62220318,0.410708081 5.54394203,0.460852413 6.46630696,0.490571985 C6.62391134,0.495648384 6.72290472,0.550416289 6.79606012,0.677350085 C6.95482036,0.952834079 7.13679383,1.21768862 7.26976425,1.50482688 C7.88802134,2.83980053 8.48441368,4.18464098 9.10428414,5.51887581 C10.1095328,7.68270856 11.1269661,9.84098825 12.1395351,12.0015082 C12.173151,12.0731975 12.2099454,12.1434806 12.2580816,12.2401705 C12.3031836,12.1780382 12.3456128,12.1349246 12.3700782,12.0834694 C12.5986708,11.602284 12.8165718,11.1159984 13.0518827,10.638102 C14.2437524,8.21725571 15.285049,5.73170322 16.32165,3.24355296 C16.6638526,2.42215354 17.067604,1.62606462 17.4287336,0.812101058 C17.5245484,0.596175374 17.6740859,0.514333344 17.8920833,0.506444668 C18.7260982,0.476296104 19.5603058,0.450771114 20.3940078,0.414044681 C21.2594473,0.375959776 22.1242607,0.324480805 22.989628,0.284274775 C23.2205804,0.27354999 23.452472,0.282654141 23.680294,0.282654141 C23.7542682,0.492669277 23.7509451,0.852783745 23.6718178,1.33935535 C23.404697,1.39336061 23.1275349,1.43363813 22.859788,1.5073055 C22.4821395,1.61124058 22.110511,1.73719723 21.7384009,1.85996028 C21.6481245,1.88972752 21.5642534,1.94065833 21.4805269,1.9873469 C21.1788993,2.15558304 21.0369229,2.40687668 21.0594137,2.75445507 C21.0978697,3.34891802 21.128909,3.94385763 21.1597556,4.53874957 C21.2354153,5.9982499 21.31618,7.45751189 21.3818706,8.91746505 C21.4561578,10.5679142 21.5102658,12.219269 21.5854921,13.8696944 C21.6140271,14.4960695 21.6784895,15.1208002 21.7232545,15.7465319 C21.7391714,15.9690116 21.8381167,16.1117227 22.0629287,16.1798847 C22.7298276,16.3821065 23.3936202,16.5943858 24.0586409,16.8027326 C24.1270284,16.8241345 24.1955123,16.8452742 24.2817432,16.8720862 C24.33549,17.1609643 24.3186821,17.4487937 24.2846328,17.7653417 C23.9561559,17.7398167 23.6446795,17.7265895 23.3361169,17.6898154 C21.4753256,17.4681936 19.6088514,17.3995073 17.7373203,17.4885231 C16.9684421,17.5251065 16.2007438,17.5860948 15.4041252,17.6378121 L15.4041252,17.198358 L15.4041252,16.7469399 C15.6897877,16.605039 15.979905,16.5453616 16.2667715,16.4800834 C16.5166027,16.4232182 16.7706239,16.3845375 17.0221407,16.3346553 C17.6658746,16.2070065 17.8182295,16.0287129 17.8680031,15.3770988 C17.9323452,14.5347741 17.8661249,13.6938794 17.8495096,12.8524127 C17.8365063,12.1932436 17.8333759,11.5337646 17.8101386,10.8749768 C17.7614004,9.49395802 17.7048844,8.11312996 17.646466,6.73246872 C17.6128743,5.93890608 17.5704451,5.14565327 17.5293403,4.35242429 C17.5207437,4.18666677 17.5005887,4.02152891 17.4442653,3.84244882 C17.4088434,3.9152582 17.3709172,3.98694743 17.3383368,4.06097229 C16.2781614,6.47004513 15.2242708,8.88185876 14.1560526,11.2874282 C13.6850214,12.3482048 13.1576186,13.3847673 12.752013,14.4735237 C12.4441968,15.299928 12.1467351,16.1300979 11.8436868,16.9582182 C11.748185,17.2192356 11.6495529,17.4791329 11.5479107,17.7513756 L10.5111652,17.7513756 C10.4894449,17.707118 10.4629808,17.6666975 10.4488458,17.6223922 C9.87708744,15.830352 9.06715259,14.1377425 8.26371938,12.4406525 C6.98764156,9.74525167 5.73540306,7.0387686 4.47273787,4.3371236 C4.43283711,4.25177814 4.38896313,4.16824397 4.32218896,4.03418415 C4.30583856,4.13094555 4.29189617,4.17722896 4.29107744,4.22372687 C4.25632983,6.18550465 4.22545912,8.1474016 4.18815901,10.1091317 C4.16159864,11.5069526 4.12030123,12.9044875 4.10017025,14.3023799 C4.09564319,14.6173549 4.13356938,14.9361432 4.18433027,15.24802 C4.25852112,15.7039664 4.5262439,16.0388895 4.95255835,16.2182556 C5.31999691,16.3728594 5.70366546,16.491118 6.08425177,16.6129039 C6.30448855,16.6833538 6.53284033,16.7289222 6.77253385,16.7894815 L6.77253385,17.7382676 C6.52405108,17.7382676 6.27718169,17.7563567 6.03380391,17.7351455 C4.96252752,17.6416968 3.89192537,17.5365463 2.81465303,17.564669 C2.10077378,17.5833302 1.38730389,17.6175065 0.673617286,17.6441516 C0.449118324,17.6525408 0.224547122,17.6589756 -1.13686838e-13,17.66634 L-1.13686838e-13,17.33268 Z M34.6272131,18 C34.3573471,17.9688028 34.0875535,17.9371289 33.8176153,17.9065514 C32.9376555,17.8068585 32.0671832,17.6498715 31.253516,17.2965732 C29.1117096,16.3666866 27.6022232,14.8281327 26.8076515,12.639204 C26.3696823,11.4326894 26.1467003,10.179963 26.2177608,8.89682579 C26.3513814,6.48379669 27.2073574,4.36762966 28.9542497,2.64153499 C29.885428,1.72144372 31.0019991,1.0951639 32.22852,0.646891694 C33.4308164,0.207461477 34.6780703,-0.0264341808 35.9533775,0.0023797433 C37.2014742,0.0305740131 38.4579749,0.0518329215 39.6817266,0.362208218 C40.5936889,0.593529927 41.4791391,0.893085106 42.3091808,1.34116665 C42.4343974,1.40875663 42.4996064,1.49398293 42.5205802,1.63178451 C42.6654462,2.582644 42.7691352,3.53750742 42.8113958,4.49840054 C42.8208111,4.71263409 42.8093249,4.92539001 42.6935236,5.15349428 C42.4137367,5.12217791 42.1287725,5.08790626 41.8432546,5.05954516 C41.7287054,5.04817689 41.6853853,4.9639039 41.6313013,4.88537464 C41.3646381,4.49820988 41.0907508,4.11581169 40.8308781,3.72426168 C40.0036297,2.4778271 37.894765,1.20286458 35.7361748,1.41855194 C34.5970888,1.53235383 33.6379535,2.01666131 32.8028791,2.77397418 C31.8331244,3.65338277 31.2053075,4.73539447 30.8769992,5.98609514 C30.423113,7.71512124 30.3276353,9.46762272 30.6384374,11.229133 C30.8442502,12.395656 31.2217302,13.5076018 31.9168029,14.489873 C32.7775227,15.7062067 33.9346447,16.4714797 35.4287921,16.7003943 C36.246866,16.8257313 37.0610631,16.757331 37.8694327,16.6011543 C38.0031496,16.5753195 38.1369388,16.548007 38.2684644,16.5131396 C38.9201447,16.3404705 39.2374243,15.9635777 39.2991898,15.2976162 C39.4072614,14.1324993 39.4017471,12.9653328 39.3648322,11.7975943 C39.3613406,11.6864379 39.3571748,11.5752338 39.3499748,11.464268 C39.3363214,11.2537285 39.2359795,11.1001496 39.0289627,11.036063 C38.7077339,10.9366085 38.3840971,10.8446614 38.060364,10.7532385 C37.7828165,10.6748523 37.5015848,10.6085731 37.2259156,10.5243478 C36.9295134,10.4337591 36.8833999,10.360759 36.8928153,10.0593211 C36.8945249,10.0039335 36.9001356,9.94821228 36.9096232,9.8936112 C36.9685232,9.55506547 37.0256894,9.49410102 37.3790651,9.49505433 C37.9487767,9.49657964 38.5209926,9.48718949 39.0875737,9.53523653 C40.3708274,9.64408119 41.6537199,9.60244519 42.9373589,9.58147227 C43.4187687,9.5735836 43.9002507,9.5717723 44.3816845,9.56965118 C44.4682044,9.56926985 44.5547483,9.58092412 44.6628681,9.5885268 C44.6913549,9.84439635 44.7108357,10.085418 44.66164,10.3283702 C44.6361151,10.4544222 44.5662586,10.5413644 44.4422701,10.5898405 C44.1812416,10.6918451 43.9235121,10.8021197 43.6621946,10.9033855 C43.06992,11.1329198 43.0172086,11.2014631 43.0082989,11.8268611 C43.0009304,12.3431522 43.0073839,12.8596817 42.9956569,13.3758538 C42.9738644,14.3365562 42.9402244,15.2970204 42.9182393,16.2577228 C42.9117377,16.54131 42.7932153,16.7353333 42.5349079,16.8631727 C42.0724973,17.0919682 41.5810943,17.2372056 41.0867535,17.3729814 C39.8921869,17.7011598 38.6751535,17.8967084 37.4366407,17.9604851 C37.3665435,17.9640601 37.2974335,17.9863914 37.227866,18 L34.6272131,18 Z M69.3994005,0.284088879 L69.3994005,1.33585669 C69.2595672,1.36266865 69.1366864,1.38776465 69.0132035,1.40969088 C68.4750369,1.50518914 67.9454428,1.63293325 67.4448412,1.85457882 C67.285503,1.92512408 67.1326183,2.01769089 66.9925443,2.12110166 C66.8303647,2.2408141 66.7477699,2.41374531 66.7538862,2.61837422 C66.7598099,2.81675892 66.770646,3.01497679 66.7816506,3.213147 C66.8346028,4.16476914 66.8981984,5.11591463 66.9398088,6.06801343 C67.0448945,8.47231971 67.1336779,10.8773648 67.2429775,13.2815042 C67.2804944,14.1062164 67.3623427,14.9289028 67.4178714,15.7529477 C67.4332105,15.9806945 67.537959,16.1147305 67.7600259,16.1820821 C68.4269007,16.3843039 69.0909341,16.5957252 69.7560993,16.8035 C69.8247276,16.8249258 69.8934764,16.8461608 69.9822839,16.8737116 C69.9878704,17.013682 69.9957446,17.1551062 69.998562,17.2966257 C70.0013794,17.4385027 69.9991881,17.580475 69.9991881,17.7397738 C69.8448345,17.7397738 69.7194975,17.7493069 69.5960628,17.738177 C68.8610653,17.672017 68.1277775,17.578044 67.3914556,17.5375758 C66.4948082,17.488361 65.5958251,17.4673881 64.6976847,17.462264 C63.5495446,17.45571 62.4043663,17.5359075 61.2608255,17.6342896 C61.2136044,17.638365 61.1660702,17.6391038 61.0938058,17.6426072 C61.0938058,17.4873362 61.0912051,17.3409548 61.0945282,17.1947164 C61.0979716,17.0444264 61.1072184,16.8942794 61.1143702,16.7339319 C61.4643747,16.5782319 61.8330173,16.5069001 62.1996612,16.429777 C62.4347554,16.3803 62.6720409,16.3404991 62.9063887,16.2878047 C63.2845429,16.2028167 63.5152545,15.9862714 63.5328089,15.5826381 C63.5455955,15.2894224 63.583931,14.9962306 63.5794039,14.7035155 C63.5595619,13.4249065 63.5408035,12.1460831 63.4980131,10.8681177 C63.4427493,9.21712032 63.3672581,7.56679031 63.2956679,5.91636497 C63.2677831,5.27375964 63.2270155,4.63172631 63.191425,3.98945465 C63.1889448,3.94438672 63.1810224,3.89965244 63.1413143,3.84397889 C63.1074817,3.91075855 63.0704224,3.97613208 63.0402982,4.04450855 C61.9821455,6.44562122 60.927388,8.84821153 59.8657437,11.2477989 C59.4090401,12.2800953 58.8903784,13.2856988 58.4952237,14.3444497 C58.1702383,15.2152308 57.8545721,16.08942 57.5345232,16.9620123 C57.4389251,17.2226961 57.3424842,17.4830939 57.2428888,17.7532155 L56.2020979,17.7532155 C56.179607,17.703667 56.1559844,17.662746 56.1418013,17.6188697 C55.5790729,15.8749242 54.8013091,14.2208286 54.0169714,12.5672335 C52.7220148,9.83694143 51.4541483,7.09404176 50.1744344,4.35667131 C50.131331,4.26446198 50.0837727,4.17430229 50.0036341,4.08521507 C49.9978308,4.13400093 49.987669,4.18271529 49.9868262,4.23157264 C49.9529936,6.16944607 49.9226527,8.10741484 49.8859786,10.0452168 C49.859346,11.4509263 49.8206733,12.8563976 49.7964006,14.2621071 C49.7914882,14.5465523 49.8107283,14.8337859 49.8477635,15.1160384 C49.9168734,15.6429829 50.1969975,16.0216155 50.6931924,16.2485043 C51.1039993,16.436331 51.5345759,16.555829 51.9702334,16.6644115 C52.132702,16.7049035 52.2948335,16.7467302 52.4704498,16.7913691 L52.4704498,17.7704467 C52.1989223,17.7583873 51.9360397,17.7599841 51.6762152,17.7329338 C50.3656305,17.5965145 49.0527824,17.5246823 47.7349737,17.5786637 C47.1657438,17.6019722 46.596875,17.6345279 46.0277895,17.6615067 C45.9414141,17.665606 45.8546534,17.6620549 45.7671704,17.6620549 L45.7671704,16.7823603 C46.1451079,16.7086214 46.5022401,16.6542825 46.8506313,16.5660294 C47.1128879,16.4995596 47.3680168,16.3993901 47.6188594,16.2964083 C47.8693889,16.1935457 48.0260061,15.9970676 48.1125982,15.7423421 C48.2774747,15.2575103 48.3740842,14.7578544 48.395058,14.2493327 C48.4949423,11.828844 48.5870488,9.40804534 48.6767231,6.9871514 C48.719345,5.83647723 48.7610517,4.6855409 48.7805325,3.53431858 C48.7869619,3.15549532 48.7238961,2.77538508 48.6896782,2.396109 C48.6642737,2.11452379 48.5190947,1.91799805 48.2425345,1.83753833 C47.8433343,1.72137698 47.4421835,1.61117385 47.0391786,1.5087164 C46.7769461,1.4420559 46.5099458,1.39369903 46.2256318,1.33297291 L46.2256318,0.363166298 C46.3229395,0.352441513 46.4313242,0.332612576 46.5400941,0.330014794 C46.8609617,0.322316782 47.1824554,0.308827385 47.5029136,0.320004994 C49.0507356,0.374057914 50.5982204,0.438644956 52.1461628,0.489694936 C52.3141698,0.495224159 52.4165344,0.556689097 52.4943373,0.688556294 C52.6357598,0.92826717 52.7968077,1.15896922 52.9146317,1.40957172 C53.3206225,2.27308379 53.7079031,3.14519952 54.1088612,4.01107105 C55.1480628,6.25545885 56.190106,8.49853585 57.2325585,10.7414222 C57.4336997,11.1741554 57.641463,11.6038141 57.8470591,12.0344738 C57.8775686,12.0983459 57.9130386,12.1598585 57.9618971,12.2520678 C58.0173296,12.1580234 58.0657788,12.0887413 58.101321,12.0134533 C58.2947326,11.6035758 58.4858565,11.1926497 58.6761135,10.7813422 C59.2970435,9.43888506 59.9348536,8.10374458 60.532739,6.75130144 C61.1177896,5.42802973 61.6544632,4.08388043 62.2270885,2.75507949 C62.5069958,2.10551497 62.8287543,1.4736821 63.1139834,0.826262542 C63.2123025,0.603210834 63.3643925,0.513527793 63.5931537,0.505758282 C64.4592434,0.47630087 65.3255498,0.451252538 66.1913024,0.413501292 C67.0166966,0.377513678 67.8413444,0.325033727 68.6665942,0.285828678 C68.9050115,0.274531903 69.1444161,0.284088879 69.3994005,0.284088879 Z" id="mgm"></path>
            <path d="M105.165929,18 C104.782823,17.9456296 104.395535,17.9119756 104.017334,17.833286 C102.317423,17.4797147 101.056835,16.5399012 100.357215,14.8986769 C99.9994828,14.0594158 99.9477291,13.1648018 100.040218,12.2662165 C100.257126,10.1589135 101.122704,8.30376951 102.236274,6.5534769 C103.314416,4.85890575 104.608501,3.33776305 105.934113,1.84335518 C106.189865,1.55504472 106.446824,1.2677578 106.737683,1 C106.692725,1.08319325 106.648491,1.16675497 106.602729,1.24941598 C105.928483,2.46779585 105.394418,3.74202001 105.149,5.12564001 C104.954089,6.2243477 104.944478,7.31810147 105.415208,8.35560153 C106.015704,9.67907838 107.054961,10.4421062 108.451709,10.7097412 C109.800483,10.9681234 111.141616,10.8452987 112.457255,10.5205093 C114.296704,10.0663855 116.122883,9.55617182 117.952722,9.0622119 C121.993897,7.97140593 126.033785,6.87564603 130.074316,5.78213792 C134.308713,4.63610179 138.54315,3.49018848 142.777627,2.34447987 C144.141682,1.97543266 145.505978,1.60716333 146.870193,1.23868929 C146.907993,1.22849484 146.946316,1.22034747 147,1.2456903 C146.922872,1.28069533 146.846186,1.31668296 146.768576,1.35050069 C139.511471,4.51221263 132.25497,7.67519375 124.99694,10.8347358 C120.715977,12.6982727 116.435979,14.5641024 112.148703,16.412491 C110.654439,17.0567065 109.108221,17.5450574 107.501644,17.810113 C107.07937,17.8797956 106.651185,17.9124669 106.225775,17.9630707 C106.140323,17.9732652 106.055354,17.9875538 105.970183,18 L105.165929,18 Z" id="nike"></path>
        </g>
    </g>
</svg>