<?xml version="1.0" encoding="UTF-8"?>
<svg width="210px" height="26px" viewBox="0 0 210 26" version="1.1" xmlns="http://www.w3.org/2000/svg" xmlns:xlink="http://www.w3.org/1999/xlink">
    <!-- Generator: Sketch 52.3 (67297) - http://www.bohemiancoding.com/sketch -->
    <title>logos-junichi</title>
    <desc>Created with Sketch.</desc>
    <defs>
        <polygon id="path-1" points="0.00371051837 0.0153531599 14.4777397 0.0153531599 14.4777397 16.3571321 0.00371051837 16.3571321"></polygon>
        <polygon id="path-3" points="0 0.00167845957 6.50113256 0.00167845957 6.50113256 6.4768316 0 6.4768316"></polygon>
        <polygon id="path-5" points="0.0143963764 0.0117200891 5.53564771 0.0117200891 5.53564771 6.49859367 0.0143963764 6.49859367"></polygon>
    </defs>
    <g id="Page-1" stroke="none" stroke-width="1" fill="none" fill-rule="evenodd">
        <g id="Group">
            <path d="M168.165929,21 C167.782823,20.9456296 167.395535,20.9119756 167.017334,20.833286 C165.317423,20.4797147 164.056835,19.5399012 163.357215,17.8986769 C162.999483,17.0594158 162.947729,16.1648018 163.040218,15.2662165 C163.257126,13.1589135 164.122704,11.3037695 165.236274,9.5534769 C166.314416,7.85890575 167.608501,6.33776305 168.934113,4.84335518 C169.189865,4.55504472 169.446824,4.2677578 169.737683,4 C169.692725,4.08319325 169.648491,4.16675497 169.602729,4.24941598 C168.928483,5.46779585 168.394418,6.74202001 168.149,8.12564001 C167.954089,9.2243477 167.944478,10.3181015 168.415208,11.3556015 C169.015704,12.6790784 170.054961,13.4421062 171.451709,13.7097412 C172.800483,13.9681234 174.141616,13.8452987 175.457255,13.5205093 C177.296704,13.0663855 179.122883,12.5561718 180.952722,12.0622119 C184.993897,10.9714059 189.033785,9.87564603 193.074316,8.78213792 C197.308713,7.63610179 201.54315,6.49018848 205.777627,5.34447987 C207.141682,4.97543266 208.505978,4.60716333 209.870193,4.23868929 C209.907993,4.22849484 209.946316,4.22034747 210,4.2456903 C209.922872,4.28069533 209.846186,4.31668296 209.768576,4.35050069 C202.511471,7.51221263 195.25497,10.6751937 187.99694,13.8347358 C183.715977,15.6982727 179.435979,17.5641024 175.148703,19.412491 C173.654439,20.0567065 172.108221,20.5450574 170.501644,20.810113 C170.07937,20.8797956 169.651185,20.9124669 169.225775,20.9630707 C169.140323,20.9732652 169.055354,20.9875538 168.970183,21 L168.165929,21 Z" id="nike" fill="#DFDFDF"></path>
            <g id="adidas">
                <g id="Group-3" transform="translate(16.233518, 0.003160)">
                    <mask id="mask-2" fill="white">
                        <use xlink:href="#path-1"></use>
                    </mask>
                    <g id="Clip-2"></g>
                    <path d="M0.00371051837,3.19802416 C1.76635169,2.13609108 3.5214921,1.07867472 5.28643422,0.0153475836 C8.34817353,5.45852602 11.4075756,10.8975223 14.4777397,16.3556822 L14.3668771,16.3556822 C12.0630039,16.3556822 9.75911263,16.3553662 7.45523946,16.357132 C7.38418158,16.3571877 7.34285496,16.3378941 7.30584036,16.2715929 C4.88749914,11.9405335 2.46727368,7.61058922 0.0472837443,3.28049628" id="Fill-1" fill="#DFDFDF" mask="url(#mask-2)"></path>
                </g>
                <path d="M21.3683173,16.3594387 L15.7747108,16.3594387 L15.7747108,17.9070967 L14.2452815,17.9070967 L14.2452815,17.803342 C14.2452815,17.3511301 14.2467672,16.898881 14.243361,16.4466877 C14.2429443,16.3913717 14.2268014,16.3300892 14.2001502,16.2819108 C12.8617365,13.8629145 11.5213842,11.4450706 10.1812674,9.02707807 C10.1589826,8.98685502 10.1371869,8.94639033 10.1094486,8.89553532 C11.8956791,7.85901115 13.6793188,6.82397398 15.4692091,5.78531227 C17.4337908,9.30681784 19.3955825,12.8233234 21.3683173,16.3594387" id="Fill-4" fill="#DFDFDF"></path>
                <path d="M8.49976668,21.7242342 C8.50204952,22.7302565 9.28285274,23.5244572 10.2662126,23.5209442 C11.209967,23.5175985 12.0237083,22.6790669 12.0207551,21.7129703 C12.0178744,20.7675985 11.1789131,19.9137509 10.2552151,19.9160558 C9.29211092,19.9184907 8.49752008,20.7369294 8.49976668,21.7242342 Z M13.5481371,24.8245688 L12.0218422,24.8245688 L12.0218422,24.4479517 C11.9272312,24.5016134 11.8463897,24.5544572 11.7601673,24.5953123 C10.570283,25.159197 9.41123523,25.1382862 8.32438671,24.3446245 C7.58925838,23.8077844 7.18072089,23.0486394 7.07185123,22.1299219 C6.96406865,21.2205725 7.17660815,20.3935836 7.74200926,19.6790483 C8.29210086,18.9838625 9.01365898,18.6004424 9.88178983,18.5183234 C10.6386414,18.4467435 11.3464119,18.6001822 11.9852081,19.0389368 C11.9920384,19.0436208 12.0008437,19.0452751 12.0180918,19.0519851 L12.0180918,16.4240112 L13.5481371,16.4240112 L13.5481371,24.8245688 Z" id="Fill-6" fill="#DFDFDF"></path>
                <path d="M17.8407648,21.7212565 C17.8417431,22.6850855 18.6620431,23.5215353 19.6056888,23.5209591 C20.5879434,23.5203457 21.3680763,22.7206803 21.3666088,21.7159219 C21.3651593,20.7359219 20.5665645,19.9178922 19.6095297,19.9160706 C18.6813747,19.9142862 17.8398045,20.7731896 17.8407648,21.7212565 Z M21.3646883,16.4214424 L22.8898237,16.4214424 L22.8898237,24.8259963 L21.3683481,24.8259963 L21.3683481,24.4539517 C21.348799,24.4614052 21.3371312,24.4632454 21.3285071,24.4694907 C20.8887708,24.7889331 20.390333,24.9331338 19.8608775,24.9641933 C18.7703148,25.028171 17.851255,24.6488587 17.1344799,23.7975762 C15.8577572,22.2812751 16.267255,19.9189145 17.9743652,18.9446394 C18.8650708,18.4363123 19.7990053,18.359026 20.7582867,18.7109405 C20.9482696,18.7806431 21.1178156,18.9089888 21.296493,19.010829 C21.3164769,19.0222045 21.3345584,19.0371301 21.3646883,19.0582454 L21.3646883,16.4214424 Z" id="Fill-8" fill="#DFDFDF"></path>
                <g id="Group-12" transform="translate(0.000000, 18.497584)">
                    <mask id="mask-4" fill="white">
                        <use xlink:href="#path-3"></use>
                    </mask>
                    <g id="Clip-11"></g>
                    <path d="M4.97202939,3.22665056 C4.97389552,2.23888104 4.17981198,1.42075836 3.2170158,1.41849071 C2.29242999,1.4162974 1.45672994,2.2676171 1.45308827,3.21538662 C1.44939225,4.18220818 2.26249945,5.02086989 3.20603644,5.02337918 C4.18988546,5.02601859 4.97014514,4.23218959 4.97202939,3.22665056 M4.97045315,0.56135316 L4.97045315,0.0826171004 L6.50113256,0.0826171004 L6.50113256,6.32687361 L4.97574353,6.32687361 L4.97574353,5.95724535 C4.95568717,5.96449442 4.94407368,5.96607435 4.93550398,5.972171 C4.53066251,6.26066543 4.07186633,6.39126022 3.59020554,6.44962454 C2.92573649,6.53016357 2.28748384,6.43704089 1.69789552,6.10118587 C0.741041973,5.55613011 0.163338903,4.7295316 0.024810468,3.61059108 C-0.184431605,1.92020074 0.951805939,0.34895539 2.58533991,0.0581003717 C3.4203696,-0.0905799257 4.20637262,0.0501635688 4.92294836,0.53297026 C4.93465244,0.540869888 4.94717182,0.547505576 4.97045315,0.56135316" id="Fill-10" fill="#DFDFDF" mask="url(#mask-4)"></path>
                </g>
                <path d="M28.4031231,21.7310948 C28.4121639,20.7858532 27.5836022,19.9244963 26.6572227,19.9161134 C25.7047537,19.9074703 24.8943823,20.7165967 24.8830587,21.6875074 C24.8713003,22.6971543 25.638805,23.5096078 26.6147004,23.5205372 C27.5736374,23.5313178 28.3937562,22.710723 28.4031231,21.7310948 M28.4020542,19.0568941 L28.4020542,18.579645 L29.8554432,18.579645 L29.8554432,24.8242546 L28.407562,24.8242546 L28.407562,24.4462621 C28.3077331,24.5029164 28.2268916,24.5561691 28.1403974,24.5967825 C26.8888765,25.1842361 25.6878136,25.1331394 24.5841156,24.2443848 C23.9016193,23.6947751 23.5343541,22.9450539 23.4489288,22.0598494 C23.3588473,21.126671 23.6007557,20.2906115 24.206487,19.5821729 C24.7523209,18.9437714 25.4484598,18.5920799 26.2725101,18.5175818 C27.0227668,18.4497751 27.725573,18.5977491 28.3590607,19.0337342 C28.368337,19.0401283 28.3788996,19.0445149 28.4020542,19.0568941" id="Fill-13" fill="#DFDFDF"></path>
                <path d="M12.0238297,16.3611636 L11.9058287,16.3611636 C9.60557906,16.3611636 7.30531132,16.3607361 5.0050617,16.3630595 C4.9291845,16.3631338 4.88782164,16.3425204 4.8505534,16.2726506 C4.55383875,15.716368 4.25268525,15.1625762 3.9529993,14.607948 C3.93859567,14.5812937 3.925261,14.5540446 3.9065997,14.517632 C5.66675873,13.4688773 7.42304056,12.4224461 9.18836316,11.3706245 C10.1317733,13.0310892 11.0726832,14.6871115 12.0238297,16.3611636" id="Fill-15" fill="#DFDFDF"></path>
                <g id="Group-19" transform="translate(30.455964, 18.478996)">
                    <mask id="mask-6" fill="white">
                        <use xlink:href="#path-5"></use>
                    </mask>
                    <g id="Clip-18"></g>
                    <path d="M5.30068928,2.06016543 L3.78111605,2.06016543 C3.77488354,2.00522119 3.76870539,1.95107621 3.7625997,1.89693123 C3.72538581,1.56637361 3.5435378,1.35760037 3.23627861,1.27414312 C2.86692984,1.17378996 2.49402999,1.19053717 2.12680101,1.29150372 C1.95711002,1.33815799 1.82428868,1.44341822 1.75167267,1.61514684 C1.66764248,1.81380855 1.70288153,2.00012825 1.88433095,2.10973792 C2.04003503,2.20382714 2.2142917,2.28247026 2.39014273,2.32128067 C2.80239436,2.41224721 3.22031686,2.47650372 3.63631887,2.54925465 C4.06862687,2.62486803 4.4820924,2.75180112 4.84457453,3.01557435 C5.37296105,3.40010967 5.59155189,3.9255 5.52361027,4.58436617 C5.43854736,5.40921747 5.00317745,5.96070446 4.25554786,6.23360409 C3.32241047,6.57421747 2.37195249,6.59525836 1.43602496,6.24553717 C0.725029492,5.97986803 0.247300252,5.47124349 0.0716847509,4.69724721 C0.0453234021,4.58105762 0.0339997987,4.46129926 0.0143963764,4.33458922 L1.6231996,4.33458922 C1.63234907,4.40297212 1.63843664,4.47027695 1.65068425,4.53639219 C1.70096105,4.8075632 1.837877,5.02499814 2.07663291,5.15010967 C2.56130126,5.40406877 3.0585071,5.44267472 3.54761429,5.16412454 C3.65671948,5.10198699 3.75395752,4.99979368 3.82802295,4.89479368 C3.99320262,4.66057435 3.9427084,4.40761896 3.69927811,4.25927323 C3.57470035,4.18336245 3.43191424,4.12533271 3.29010649,4.09533271 C2.91526804,4.01603903 2.53392531,3.96856691 2.16004711,3.88533271 C1.82811152,3.81146654 1.49688254,3.72414312 1.17583573,3.61129926 C0.680767791,3.43728439 0.389651535,3.05265613 0.24585083,2.55027695 C-0.0106967287,1.65395725 0.386625868,0.76782342 1.23020715,0.33254461 C1.68519859,0.0977862454 2.17301943,0.0143104089 2.67613166,0.0117825279 C3.21667519,0.00906877323 3.74105767,0.0943475836 4.22445778,0.359217472 C4.83926603,0.696076208 5.20028062,1.21767472 5.29253629,1.92988662 C5.29766361,1.96940335 5.29766361,2.00962639 5.30068928,2.06016543" id="Fill-17" fill="#DFDFDF" mask="url(#mask-6)"></path>
                </g>
                <polygon id="Fill-20" fill="#DFDFDF" points="14.2516155 24.7679368 15.7816064 24.7679368 15.7816064 18.4834572 14.2516155 18.4834572"></polygon>
                <path d="M34.9978828,17.8557212 C35.3488421,17.856 35.6067122,17.5757398 35.6085602,17.1920037 C35.6104264,16.8018736 35.3544042,16.5158699 35.0014883,16.5138996 C34.6475034,16.5118922 34.3858828,16.7963346 34.385448,17.183658 C34.3849951,17.5725428 34.6428109,17.8554238 34.9978828,17.8557212 M35.0016513,17.9623755 C34.5966106,17.9620967 34.230831,17.5913717 34.2319181,17.1822268 C34.2330051,16.7747546 34.6047998,16.4020409 35.0064525,16.405777 C35.4373111,16.4097918 35.7637027,16.743658 35.7656775,17.1824126 C35.7676886,17.6238439 35.4357892,17.9626729 35.0016513,17.9623755" id="Fill-22" fill="#DFDFDF"></path>
                <path d="M34.9455952,16.8618076 L34.9455952,17.2438054 C35.1273646,17.2175227 35.2979673,17.2090465 35.4414374,17.1618471 C35.4822643,17.1484429 35.4828083,16.9755681 35.4350382,16.9572139 C35.2977753,16.9044294 35.1263087,16.8932812 34.9455952,16.8618076 M34.9335967,17.3591867 L34.9335967,17.7538003 L34.7423245,17.7538003 L34.7423245,16.769796 C34.9597054,16.769796 35.1728949,16.7573555 35.3812849,16.7736289 C35.5563991,16.787296 35.678048,16.8752337 35.7245702,16.9918415 C35.7712204,17.108734 35.726234,17.2158581 35.5861234,17.2976194 C35.5541914,17.3162582 35.5192517,17.3324221 35.4806006,17.3523532 C35.5640462,17.4838108 35.645988,17.6129248 35.7284097,17.7428273 C35.4967265,17.7828428 35.4864238,17.779645 35.3997786,17.6464353 C35.3651909,17.5932565 35.3197246,17.5421147 35.2978393,17.4865705 C35.2485655,17.3615303 35.1424027,17.3135423 34.9335967,17.3591867" id="Fill-23" fill="#DFDFDF"></path>
            </g>
            <path d="M133.822072,10.6413669 C133.752508,10.5176476 133.700721,10.4012059 133.627993,10.3002248 C133.189183,9.69120413 132.567985,9.39978654 131.850469,9.3443862 C130.508007,9.24075868 129.507144,9.84880432 128.794752,10.9668395 C128.416187,11.5609567 128.285036,12.2326204 128.304361,12.9610426 C130.150246,12.1850548 131.975706,11.4175983 133.822072,10.6413669 Z M137,11.6019063 C136.581753,11.7717287 136.161924,11.9377207 135.7455,12.1120002 C133.456575,13.0699629 131.168475,14.0299103 128.880169,14.9893703 C128.84365,15.0047264 128.808266,15.0228333 128.752731,15.0488795 C129.141474,15.8164753 129.675605,16.4181487 130.486722,16.7188287 C131.283602,17.0142159 132.093618,17.0157481 132.896757,16.7483222 C133.708114,16.4781803 134.295716,15.9115369 134.77555,15.2090565 C135.184375,15.4847698 135.579618,15.7510465 135.974619,16.0177412 C136.269555,16.2169177 136.564113,16.4166166 136.895464,16.6408295 C136.643821,16.9397336 136.417797,17.24501 136.155356,17.5137591 C134.806842,18.8948327 133.167588,19.5148568 131.256677,19.371185 C129.431871,19.2340248 127.940239,18.4413578 126.836319,16.9565522 C125.890165,15.6839463 125.532336,14.2276941 125.633811,12.6500207 C125.710941,11.4509569 126.05309,10.3368914 126.748289,9.35385754 C127.770815,7.90791231 129.164376,7.08599561 130.914012,6.9358123 C133.230584,6.73701877 134.946143,7.75577902 136.138197,9.71864314 C136.459164,10.2471574 136.666688,10.8463237 136.926481,11.4129671 C136.950208,11.4647112 136.975448,11.5157241 137,11.5670852 L137,11.6019063 Z M77.9661744,11.5284512 L71.7250334,11.5284512 L71.7250334,8.89002338 L80.5517546,8.89002338 C80.5848692,9.25961429 80.634455,9.63115518 80.6487943,10.0040889 C80.7208691,11.8787861 80.4243514,13.6827964 79.4404067,15.2974149 C78.2061601,17.3227133 76.4141936,18.6187189 74.1153996,19.1311459 C71.2647657,19.7665261 68.5847937,19.3223832 66.1686718,17.6212343 C63.937551,16.0503163 62.5350841,13.8980951 62.1224078,11.1681575 C61.6464597,8.01998395 62.5665137,5.28081874 64.7417558,2.99373558 C66.2911577,1.36466631 68.1976323,0.384661912 70.4133822,0.0948112666 C73.3981591,-0.29560265 76.0257256,0.514196319 78.2308155,2.62665178 C78.2430916,2.6384213 78.2524448,2.6532899 78.2550926,2.65666755 C77.6426975,3.27662201 77.0323313,3.89455684 76.4443165,4.48982315 C76.004784,4.17758255 75.5751893,3.82665574 75.104468,3.54662464 C73.7830509,2.76043436 72.3427585,2.50463873 70.8342426,2.7152366 C68.4068074,3.05421979 66.6236439,4.35391649 65.5516689,6.57494407 C63.8611435,10.0774221 65.2398147,14.527695 69.003866,16.1869542 C70.1370496,16.6864974 71.3272466,16.8291941 72.5520367,16.7058927 C73.6658262,16.5938385 74.692892,16.241867 75.6243969,15.6008458 C76.9510408,14.6879068 77.6863,13.4136991 77.924085,11.8248482 C77.9377365,11.7335822 77.9500814,11.6421072 77.9661744,11.5284512 Z M91.3856833,13.0656137 C91.370725,12.9091626 91.3631943,12.6582419 91.3188009,12.4142158 C91.2733759,12.1647576 91.2101729,11.9151602 91.1232086,11.6774715 C90.2095161,9.17996456 87.0870544,8.56728771 85.3510352,10.541399 C84.0452641,12.0262394 84.1297525,14.5503845 85.5319787,15.9471623 C86.7683572,17.178749 88.7019631,17.2771534 90.0377883,16.1604066 C90.9645822,15.3856376 91.3634006,14.3565355 91.3856833,13.0656137 Z M81.7135275,13.1530843 C81.7140433,9.62852967 84.4067384,6.90963033 87.9009219,6.90548662 C91.4012261,6.9013081 94.0977039,9.62842521 94.0892791,13.1641922 C94.0809231,16.6810513 91.3869212,19.3982444 87.9070083,19.3997069 C84.4259951,19.4011694 81.7129773,16.6648595 81.7135275,13.1530843 Z M117.853251,13.1792593 C117.858409,12.5919322 117.756039,12.0251495 117.534451,11.4826371 C116.662813,9.34869705 114.21086,8.69096173 112.483335,10.126391 C110.74343,11.5720925 110.66152,14.5023906 112.317934,16.0443723 C113.722671,17.3520779 115.856064,17.2080579 117.025182,15.7207801 C117.60852,14.9787081 117.848471,14.1169212 117.853251,13.1792593 Z M117.619971,17.9628396 C117.578982,17.9959544 117.532903,18.0242988 117.497829,18.0628805 C116.775774,18.8571493 115.86301,19.2571738 114.820092,19.3660245 C112.307137,19.6282969 109.822172,17.9747484 108.850676,15.498726 C107.634379,12.3988493 109.014288,8.84504499 112.000062,7.44043239 C113.363225,6.79916743 114.76521,6.69578365 116.178922,7.29188567 C116.68152,7.50380675 117.12425,7.80970991 117.495628,8.2174299 C117.531734,8.25712593 117.586822,8.27906321 117.662954,8.32875288 L117.662954,7.29926774 L120.228625,7.29926774 C120.231238,7.3557127 120.236533,7.41717191 120.236533,7.47870075 C120.236912,11.1227961 120.237256,14.7668915 120.236602,18.4109868 C120.236396,19.5029062 120.116799,20.5756739 119.710243,21.5985082 C118.985197,23.4225059 117.642116,24.4915826 115.75507,24.8613476 C114.389431,25.1289824 113.053468,25.0253897 111.780124,24.4081861 C110.534702,23.8044931 109.403788,22.5909786 108.910543,21.3129754 C109.688751,20.9847171 110.467441,20.6562499 111.256722,20.3232907 C111.313117,20.4353101 111.361396,20.538868 111.416139,20.6388393 C111.942224,21.599518 112.689828,22.2882093 113.785014,22.4751637 C114.82102,22.6520547 115.799738,22.4828591 116.618661,21.7562477 C117.21173,21.2300316 117.498276,20.5277253 117.59308,19.7565429 C117.664742,19.1732202 117.662507,18.5806003 117.69318,17.9921241 C117.6688,17.9823742 117.644385,17.9725895 117.619971,17.9628396 Z M104.736054,13.234005 C104.728867,12.6405842 104.649399,12.1399964 104.469178,11.6568539 C103.546579,9.18354765 100.425355,8.5728556 98.7103121,10.5307751 C97.4257576,11.9971951 97.4665748,14.4402071 98.799374,15.8639365 C99.9800458,17.1251907 101.902579,17.3013853 103.26949,16.2545941 C104.279328,15.4812528 104.707203,14.4114101 104.736054,13.234005 Z M95.0680934,13.1397443 C95.0856994,9.59579438 97.7894671,6.88309319 101.281897,6.90548314 C104.777456,6.9278731 107.450138,9.64248944 107.440028,13.1602888 C107.429884,16.6930263 104.714803,19.4196211 101.227222,19.3994249 C97.7451425,19.3792287 95.0506592,16.6408295 95.0680934,13.1397443 Z M121.847646,19.011821 L121.847646,0.723234209 L124.470158,0.723234209 L124.470158,19.011821 L121.847646,19.011821 Z" id="google" fill="#DFDFDF"></path>
        </g>
    </g>
</svg>