<svg width="42" height="29" viewBox="0 0 42 29" fill="none" xmlns="http://www.w3.org/2000/svg">
<path d="M33.5731 3.88338H7.36058C6.27637 3.88338 5.89371 4.52666 5.44727 5.49158C5.82993 5.2986 5.6386 5.87755 6.08504 5.87755H32.2975C33.8282 5.87755 34.4659 6.52083 34.4659 8.06471V24.5327C34.4659 24.983 34.3384 25.369 34.147 25.7549C35.1037 25.3046 36.3793 24.3397 36.3793 23.1818V6.77814C36.443 5.16994 35.1675 3.88338 33.5731 3.88338Z" fill="#DFE0E2"/>
<path d="M36.4482 8.83704H5.83514V12.6967H36.4482V8.83704Z" fill="#A1F4C0"/>
<path d="M32.8745 25.3049H8.00136C6.66203 25.3049 5.57782 24.2113 5.57782 22.8605V6.19947C5.57782 4.84858 6.66203 3.755 8.00136 3.755H33.9587C35.298 3.755 36.3823 4.84858 36.3823 6.19947V22.8605C36.3823 24.2113 35.298 25.3049 33.9587 25.3049H32.8745" stroke="#63656B" stroke-width="1.5" stroke-miterlimit="10"/>
<path d="M9.01954 21.5739H11.762" stroke="#4E545C" stroke-width="1.5" stroke-miterlimit="10"/>
<path d="M13.8671 21.5739H17.2473" stroke="#4E545C" stroke-width="1.5" stroke-miterlimit="10"/>
<path d="M36.4466 8.90137V12.8897H5.64215V8.90137H36.4466Z" stroke="#63656B" stroke-width="1.5" stroke-miterlimit="10"/>
<path d="M1 1L41 28" stroke="#63656B" stroke-width="1.5" stroke-miterlimit="10" stroke-linecap="round" stroke-linejoin="round"/>
</svg>
