<?xml version="1.0" encoding="UTF-8"?>
<svg width="210px" height="26px" viewBox="0 0 210 26" version="1.1" xmlns="http://www.w3.org/2000/svg" xmlns:xlink="http://www.w3.org/1999/xlink">
    <!-- Generator: Sketch 52.3 (67297) - http://www.bohemiancoding.com/sketch -->
    <title>logos-jon</title>
    <desc>Created with Sketch.</desc>
    <g id="Page-1" stroke="none" stroke-width="1" fill="none" fill-rule="evenodd">
        <g id="logos" fill="#DFDFDF">
            <path d="M97.8188592,2.59256226 C96.2517885,2.59256226 94.6846435,2.59326598 93.1174985,2.59199928 C92.799834,2.59171779 92.4881141,2.62894459 92.1822645,2.70867607 C90.7152117,3.09121832 89.6847897,4.36685174 89.6833778,5.81440398 C89.6804798,8.8054255 89.6827091,11.796447 89.6821889,14.7873982 C89.6821889,15.078105 89.7231323,15.3634635 89.8063567,15.6425588 C90.2244107,17.0446508 91.565215,18.0064954 93.1044204,18.0072695 C95.3240595,18.0084658 97.5436985,18.007551 99.7632633,18.007551 C100.685865,18.007551 101.608541,18.0071991 102.531143,18.0076213 C102.985979,18.0079028 103.424988,17.9301418 103.844008,17.762586 C105.150259,17.2403553 105.959022,16.0833691 105.959319,14.7389822 C105.959839,12.6140994 105.959468,10.4892869 105.959468,8.36440412 C105.959468,7.52359935 105.95865,6.68279457 105.959839,5.84191943 C105.960285,5.52306386 105.916518,5.20997878 105.818284,4.90554947 C105.368203,3.51035401 104.054149,2.59249188 102.51212,2.59256226 C100.947725,2.59263263 99.3832548,2.59256226 97.8188592,2.59256226 M88.0013535,10.2926676 C88.0013535,8.80099206 88.0023195,7.3092462 88.0010562,5.81764109 C87.9995701,4.00450626 89.0826018,2.36856815 90.7349775,1.54915647 C91.3147245,1.26168681 91.9301391,1.08470121 92.5820388,1.02608132 C92.7440291,1.01151432 92.9072083,1.00166223 93.0697931,1.00159186 C96.2307595,1.00018442 99.3916515,0.999128842 102.552544,1.00102889 C104.611901,1.00222521 106.460672,2.1979864 107.240306,3.98846144 C107.499045,4.58275306 107.625665,5.20230824 107.625367,5.84614175 C107.623881,8.82196292 107.627597,11.7977137 107.623733,14.7735349 C107.620983,16.8423312 106.224894,18.6324544 104.243559,19.301833 C103.682092,19.4914855 103.103385,19.5855025 102.506324,19.5852211 C99.3560583,19.5838136 96.2058665,19.5847988 93.0556004,19.5845173 C90.9500976,19.5843062 88.9993774,18.2730646 88.3004411,16.3896985 C88.1009998,15.8523378 87.9985298,15.3006916 88.0000159,14.7296931 C88.0039542,13.2506846 88.0013535,11.7716761 88.0013535,10.2926676 M94.4254436,10.2941969 C94.4266423,12.0889161 95.9617968,13.548323 97.8478866,13.547682 C99.7322531,13.5469697 101.26973,12.0842155 101.270255,10.2916329 C101.270779,8.49997618 99.7319534,7.03942982 97.8451894,7.04085426 C95.9552786,7.04227869 94.4242448,8.49876541 94.4254436,10.2941969 M102.768622,10.2959774 C102.768398,12.8790513 100.560817,14.9731872 97.8391207,14.9719764 C95.1272392,14.9708369 92.9217564,12.870291 92.9228802,10.2897811 C92.924079,7.70798927 95.1344317,5.61128939 97.8537305,5.61250017 C100.564938,5.61371094 102.768847,7.71390068 102.768622,10.2959774 Z M103.117402,6.28103135 C102.529257,6.27983762 102.062855,5.83291891 102.065365,5.27292757 C102.067736,4.71830802 102.538322,4.27404204 103.121934,4.27543472 C103.705408,4.27676109 104.174808,4.72328189 104.175157,5.27723826 C104.175505,5.83563796 103.70492,6.28222507 103.117402,6.28103135 Z M160.893082,18.5803913 C159.825779,19.6039544 158.784866,20.5347615 158.192718,21.7904263 C158.016292,22.1646268 157.915968,22.5982646 157.90311,23.0081134 C157.878964,23.78228 158.596404,24.237095 159.383593,24.0192525 C160.073149,23.8283757 160.343545,23.311794 160.517429,22.7321043 C160.915135,21.4061313 160.914088,20.0449336 160.893082,18.5803913 Z M157.083851,13.13673 C157.114875,13.1426596 157.145899,13.1485892 157.176998,13.1545188 C157.194416,13.4831179 157.165784,13.821176 157.239345,14.1381276 C157.368599,14.6943812 157.484995,15.2720943 157.744028,15.778158 C158.106822,16.4866754 158.848634,16.5774549 159.428671,16.0096245 C159.729866,15.7146971 159.979404,15.3359788 160.135945,14.9527427 C160.627172,13.7497384 160.735569,12.4855321 160.627994,11.2093961 C160.588971,10.7460396 160.513541,10.2693416 160.348404,9.83471556 C159.990244,8.89211986 158.906346,8.71472579 158.223891,9.48620998 C157.952225,9.7932789 157.712779,10.1735502 157.610437,10.5566452 C157.38385,11.4045083 157.253474,12.2753135 157.083851,13.13673 Z M178.245023,12.0610005 C178.229997,11.303705 178.206897,10.5125967 177.848513,9.78014906 C177.39459,8.85251856 176.314729,8.72164367 175.657243,9.53371743 C175.407182,9.84255111 175.218795,10.2231048 175.106286,10.5987877 C174.774515,11.7063536 174.70402,12.8497794 174.829237,13.9880521 C174.893752,14.5736008 175.039678,15.1770794 175.292056,15.7121559 C175.660906,16.4942286 176.450487,16.5879729 177.07037,15.964023 C177.335832,15.6967671 177.548739,15.3607561 177.704233,15.0226979 C178.132365,14.0918202 178.231492,13.0974817 178.245023,12.0610005 Z M150.645424,12.0577534 C150.595636,11.5556427 150.559529,11.0519085 150.489631,10.5522686 C150.459205,10.3347085 150.374057,10.1202544 150.287938,9.91398875 C150.096037,9.45479719 149.798281,9.08956165 149.235512,9.02370066 C148.628412,8.95261597 148.202373,9.24069603 147.906337,9.70115823 C147.734321,9.96876703 147.58862,10.2632002 147.497641,10.5636336 C147.11242,11.8341225 147.026823,13.1329887 147.241973,14.4352433 C147.318973,14.9014233 147.483587,15.3760742 147.716604,15.7928409 C148.091285,16.4628158 148.787345,16.5679958 149.353478,16.0315781 C149.684426,15.7180149 149.94443,15.3047072 150.129304,14.893376 C150.533439,13.9942641 150.603561,13.0285853 150.645424,12.0577534 Z M197,14.81735 C196.923075,15.110442 196.863419,15.4086871 196.764815,15.695073 C196.653951,16.0175306 196.541965,16.3466944 196.37137,16.64261 C195.725621,17.7627409 194.39824,18.0168669 193.324958,17.2352177 C192.519379,16.6486102 192.167947,15.8096414 192.088929,14.9049529 C191.968347,13.5251898 191.952124,12.1371677 191.89516,10.752534 C191.885591,10.5212087 191.893814,10.2891776 191.893814,9.97730848 C191.809115,10.1056421 191.753197,10.1716443 191.718061,10.2463997 C190.806402,12.1906754 190.291552,14.2225539 190.228159,16.3506474 C190.219263,16.6515044 190.070198,16.7984033 189.779095,16.8664526 C188.95393,17.0594472 188.183785,16.6840466 187.975438,15.8990091 C187.79191,15.2072216 187.667141,14.4946805 187.597543,13.7841866 C187.484137,12.6259367 187.437115,11.4618985 187.360639,10.3003309 C187.35705,10.2453408 187.339408,10.1911979 187.307561,10.0352633 C187.16971,10.2087749 187.062359,10.3097194 186.997246,10.4309234 C186.169763,11.9713505 185.709561,13.6043924 185.630543,15.3313904 C185.603631,15.9189156 185.580232,16.5066526 185.558178,17.0943895 C185.545694,17.4265887 185.391695,17.6417487 185.018061,17.6351132 C184.574753,17.6272777 184.129053,17.615842 183.689633,17.5655815 C183.280489,17.5187094 183.055845,17.2777132 183.049566,16.8723822 C183.046276,16.6613165 183.025943,16.4505331 183.006132,16.1193928 C182.48276,17.0917071 181.868259,17.8273313 180.664601,17.6510667 C179.526952,17.4845436 178.922619,16.7810381 178.64101,15.7017085 C178.540537,15.8416189 178.466378,15.9401634 178.397303,16.0417432 C177.888508,16.7901443 177.217641,17.3402565 176.291031,17.5765936 C175.195844,17.8559205 174.154857,17.5216742 173.474196,16.6690109 C173.355408,16.5201354 173.253215,16.3594007 173.131287,16.1871597 C172.993211,16.3845309 172.876292,16.5727253 172.738066,16.7458134 C171.897202,17.7988833 170.646447,17.9644887 169.528983,17.1697097 C168.732076,16.6029381 168.384532,15.7977822 168.226346,14.905094 C167.962829,13.4184569 168.162579,11.9532793 168.486649,10.4960785 C168.5096,10.3926633 168.571872,10.2829656 168.551015,10.1890096 C168.530905,10.0984419 168.427442,9.95521364 168.359189,9.95450773 C167.911471,9.94970758 167.462482,9.96813171 167.016034,10.0030034 C166.937764,10.0090742 166.83288,10.1160189 166.801931,10.1973392 C165.916437,12.5211804 164.641759,14.631838 162.958985,16.5243708 C162.867931,16.6267977 162.83302,16.8015093 162.831823,16.9430434 C162.822554,18.0249849 162.895965,19.1120794 162.807752,20.1875971 C162.736509,21.0572022 162.566512,21.9407842 162.280866,22.7690938 C161.707482,24.4320661 159.975966,25.3075302 158.266876,24.9014227 C156.578345,24.500186 155.76402,23.0418557 156.501047,21.5466771 C156.834537,20.869996 157.358058,20.2515522 157.899447,19.6974163 C158.649332,18.9298146 159.468218,18.2150852 160.314614,17.5417219 C160.789543,17.1639212 160.880149,16.7668494 160.714114,16.2081251 C160.022838,17.0617061 159.175096,17.6471842 158.024216,17.6733733 C156.812558,17.7009036 156.037929,17.0482939 155.478449,16.0639086 C154.962553,17.03587 154.28107,17.7683176 153.053041,17.6485254 C151.876594,17.5337452 151.255215,16.8064507 151.003958,15.7113794 C150.188362,16.9549026 149.172118,17.8377081 147.556924,17.6356073 C146.064779,17.4489659 145.497076,16.3542476 145.069093,15.1038065 C144.973629,15.2978599 144.920552,15.4548533 144.827255,15.5865047 C144.476347,16.0819092 144.164985,16.6145855 143.742833,17.0504822 C142.682783,18.1452006 141.25291,17.6543138 140.602003,16.8384988 C140.003575,16.0884741 139.801881,15.208704 139.669936,14.3059214 C139.658797,14.2296836 139.651097,14.1529517 139.629417,13.974287 C139.457925,14.296674 139.337941,14.5347054 139.206593,14.7670189 C138.565255,15.9014091 137.754593,16.8891122 136.443583,17.3804225 C135.038829,17.9069574 133.637663,17.8063659 132.277763,17.2203937 C131.687109,16.9659147 131.612054,16.7014119 131.880131,16.1423347 C131.926181,16.0464727 131.978063,15.9516696 132.039139,15.8637138 C132.481774,15.2263517 132.747983,15.1839267 133.398217,15.6304826 C133.588996,15.7614281 133.783139,15.893856 133.992982,15.9931063 C134.862627,16.4040845 135.629033,15.9777881 135.712013,15.0555931 C135.765764,14.4584676 135.580143,13.9255795 135.176531,13.4869298 C134.639777,12.9037106 134.054507,12.3603045 133.458097,11.7679791 C132.774521,12.8490029 132.181999,13.8571066 131.514272,14.8186206 C131.005103,15.5518447 130.449661,16.2691154 129.818489,16.9087364 C129.48313,17.2485593 128.968654,17.4832729 128.488641,17.6300307 C127.878178,17.8166721 127.319595,17.5506163 127.08598,16.9825035 C126.877483,16.4755927 126.705319,15.9240687 126.683714,15.3862393 C126.634225,14.1543635 126.688947,12.918817 126.696572,11.6846823 C126.701357,10.9009859 126.697469,10.117219 126.697469,9.29279186 C126.59879,9.37827702 126.467667,9.46863293 126.36682,9.58277786 C125.369939,10.7110267 124.744,12.0257758 124.255241,13.4027152 C123.808494,14.6615566 123.429328,15.9372691 123.259331,17.262748 C123.241688,17.4003996 123.039098,17.6074417 122.901695,17.6233246 C122.538227,17.6653966 122.141493,17.6865737 121.800752,17.5864763 C121.5708,17.5189212 121.330905,17.2600656 121.242992,17.0353758 C121.112915,16.7024002 121.066042,16.323823 121.066192,15.9647289 C121.067463,13.329654 121.088096,10.6945085 121.105962,8.05950425 C121.108878,7.63483146 121.25585,7.51955709 121.70297,7.5687587 C121.801649,7.57962965 121.898982,7.60193626 121.996689,7.61979568 C123.057189,7.81377852 123.144355,7.91571129 123.142187,8.91965018 C123.139421,10.1541378 123.141514,11.3886961 123.201693,12.6481022 C123.255817,12.5206862 123.308297,12.3925644 123.364215,12.2658543 C123.789207,11.3027874 124.158804,10.3128254 124.662142,9.38773616 C124.949432,8.8597188 125.405224,8.38605616 125.87507,7.98100755 C126.445763,7.48906197 127.140852,7.41204767 127.843864,7.80036632 C128.026345,7.90109904 128.213312,7.99463153 128.394074,8.09804669 C128.849268,8.35859644 129.05911,8.73166753 129.039748,9.24471969 C128.980242,10.8196656 128.927837,12.395035 128.900102,13.9706868 C128.892328,14.4137132 128.946377,14.8638692 129.031674,15.3003306 C129.114879,15.7260622 129.374359,15.7958057 129.709942,15.4973488 C129.934288,15.2977893 130.147569,15.0709113 130.303212,14.8214442 C131.041884,13.6374994 131.764333,12.4443072 132.473999,11.2446913 C132.529319,11.1510177 132.489773,10.9493404 132.414493,10.8539726 C131.835576,10.1206073 131.864657,9.35935875 132.309908,8.60283976 C132.772054,7.817661 133.470133,7.35261042 134.464024,7.39637656 C135.300477,7.43322484 135.681438,7.8931929 135.408501,8.64950012 C135.215031,9.18563539 134.875934,9.67553386 134.593129,10.1817387 C134.530632,10.2935542 134.431654,10.3872278 134.32535,10.5191616 C134.876681,10.9145393 135.420387,11.3001049 135.958711,11.6921649 C136.234638,11.8931362 136.512509,12.0938957 136.769896,12.3151265 C137.591922,13.0218086 138.016241,13.8801192 137.806324,15.0385102 C138.567348,14.3732648 139.060967,13.6503469 139.345865,12.8144135 C139.476988,12.4299068 139.553913,12.0129989 139.560641,11.6093621 C139.58546,10.128937 139.570434,8.64787654 139.570434,7.12707359 C138.882597,7.1023669 138.190723,7.07511894 137.498625,7.05351823 C136.98998,7.03763536 136.895936,6.94127925 136.954022,6.45483973 C136.970693,6.31570574 137.003063,6.17671293 137.044179,6.04202615 C137.212755,5.49127863 137.310687,5.4406652 137.914348,5.45795989 C138.497749,5.47476044 139.082198,5.4616306 139.719125,5.4616306 C139.724433,5.36379209 139.733479,5.22854058 139.738861,5.09328908 C139.767568,4.37644198 139.7885,3.65924193 139.825729,2.94274778 C139.851968,2.43738999 140.089545,2.25286627 140.602676,2.35938742 C141.038358,2.44981392 141.466714,2.57504157 141.893426,2.69956331 C142.174212,2.78151895 142.300551,2.95545408 142.277975,3.25722871 C142.228785,3.91393265 142.215702,4.57296609 142.189537,5.23115243 C142.184977,5.34600327 142.188865,5.46106587 142.188865,5.61078844 C142.762174,5.64389541 143.306254,5.67431994 143.850184,5.70700337 C144.260076,5.73171007 144.669444,5.76481704 145.079634,5.78352354 C145.333134,5.79510039 145.445867,5.91933977 145.425907,6.14473541 C145.409461,6.33031798 145.382548,6.51844182 145.328723,6.69696533 C145.242903,6.98179823 145.071485,7.14472123 144.710111,7.13483855 C143.865584,7.11175544 143.019861,7.12742655 142.14715,7.12742655 C142.120313,7.5351576 142.085327,7.87145101 142.078299,8.20823855 C142.037781,10.1485612 141.983433,12.0889544 141.982087,14.0293476 C141.981788,14.5241874 142.102296,15.035616 142.263995,15.5100551 C142.50374,16.2137018 142.986968,16.3193052 143.551979,15.8003235 C144.347765,15.0693583 144.801464,14.1605048 144.863811,13.1107527 C144.935129,11.9083132 145.036499,10.7108855 145.580729,9.60501389 C145.813745,9.13149244 146.11823,8.66940666 146.480351,8.27607608 C147.59191,7.06897756 149.25308,7.07914261 150.388784,8.25913434 C150.438273,8.31059486 150.488211,8.36177301 150.566481,8.4425992 C150.590403,8.35605518 150.613952,8.29838269 150.621652,8.23887485 C150.668001,7.87978069 150.853921,7.71311639 151.232265,7.71763419 C151.393142,7.71954013 151.554766,7.74452919 151.714297,7.76930647 C152.670959,7.91811137 152.828621,8.09599957 152.814342,9.00026459 C152.788626,10.6350007 152.742127,12.269878 152.748781,13.9044729 C152.751098,14.4749152 152.869064,15.047334 152.967444,15.6137526 C153.000113,15.8020882 153.11008,15.9926827 153.231336,16.1502409 C153.470483,16.4609099 153.928816,16.5339005 154.221339,16.2788569 C154.750767,15.8173358 155.086724,15.2514113 155.007332,14.539435 C154.796069,12.6461962 154.928015,10.8020885 155.909497,9.09033814 C156.108499,8.74331497 156.365513,8.41083345 156.658186,8.12960067 C157.748812,7.08168387 159.346663,7.13257966 160.390268,8.22214489 C160.456427,8.29118246 160.522138,8.36057297 160.625527,8.46907066 C160.643244,8.355914 160.663429,8.28497049 160.663877,8.21395639 C160.665671,7.94542991 160.821838,7.78730707 161.084608,7.75624722 C161.30245,7.73055226 161.531205,7.74128202 161.74942,7.77191832 C162.748096,7.91218176 162.868978,8.07722248 162.853727,9.01791223 C162.822853,10.9115745 162.815601,12.8055897 162.80065,14.6995343 C162.799977,14.7867843 162.818816,14.8741754 162.902469,14.9866261 C163.143036,14.6237907 163.389733,14.2644141 163.623049,13.8974138 C164.337425,12.773824 164.881878,11.5816906 165.2517,10.3167785 C165.316065,10.0964653 165.291097,9.96142561 165.106821,9.79864379 C164.588084,9.34065226 164.562143,8.77268064 164.780284,8.17294327 C164.98736,7.60348926 165.387907,7.24171266 166.033431,7.14754485 C166.848131,7.02859977 167.396172,7.53522819 167.287775,8.30833596 C167.270282,8.43321066 167.252565,8.55801476 167.225876,8.7468445 C167.967987,8.61632256 168.658291,8.49222436 169.350015,8.3753264 C169.508126,8.34857258 169.671245,8.3319838 169.831449,8.33558392 C170.573858,8.3521727 171.028603,8.81447025 170.915347,9.51098727 C170.78527,10.3105665 170.564887,11.0967335 170.423672,11.8950421 C170.227659,13.0029609 170.165238,14.1191388 170.461424,15.220775 C170.545002,15.5318676 170.695487,15.8453602 170.89135,16.1068983 C171.18948,16.5051702 171.700293,16.5435714 172.058527,16.1973248 C172.485314,15.7847935 172.744271,15.3023071 172.652545,14.6800513 C172.385588,12.8699683 172.452944,11.0843096 173.317431,9.40658384 C173.558597,8.93856845 173.885657,8.48452999 174.269459,8.11258835 C175.347526,7.06784812 176.980587,7.14535655 177.998625,8.24063962 C178.060897,8.30763006 178.120703,8.37659703 178.200917,8.46610585 C178.318061,7.75123529 178.453669,7.65854989 179.191743,7.75448246 C179.302308,7.76888293 179.413172,7.78568348 179.52142,7.81102549 C180.393009,8.01524397 180.470009,8.13030658 180.457076,8.96129861 C180.42807,10.8306777 180.401382,12.7002686 180.408484,14.5697183 C180.410129,14.9968618 180.503201,15.4385469 180.641426,15.8472662 C180.871079,16.526065 181.544413,16.6339979 182.012166,16.0698382 C182.584429,15.3798155 182.928908,14.5824246 182.949466,13.7010309 C182.992825,11.8429463 182.99903,9.98408518 183.022878,8.12557701 C183.029082,7.64358469 183.177549,7.52626319 183.695315,7.60348926 C183.989632,7.64739658 184.282604,7.70471611 184.572062,7.77170655 C185.048337,7.88189841 185.157931,8.0150322 185.158678,8.48947133 C185.160248,9.40700738 185.153445,10.324614 185.150231,11.2422207 C185.149857,11.3346237 185.150156,11.4270973 185.213924,11.5388422 C185.255638,11.440086 185.300866,11.3425298 185.338693,11.242503 C185.688928,10.3142372 186.006569,9.37361805 186.395753,8.46017625 C186.808261,7.49209736 187.23415,7.35811648 188.263626,7.75455305 C188.893227,7.99696102 189.220512,8.40546857 189.236959,9.0719846 C189.270375,10.432547 189.346776,11.7921211 189.480142,13.1497187 C189.667184,12.4241183 189.819837,11.6886353 190.049939,10.9753884 C190.346499,10.0558758 190.690081,9.14906949 191.042036,8.24671041 C191.284472,7.62523115 191.657807,7.46619063 192.334131,7.63419615 C192.44208,7.66102056 192.547039,7.69892769 192.652072,7.73528183 C193.902379,8.16800194 194.012196,8.4082216 193.979303,9.66487468 C193.936169,11.3087876 193.962707,12.9558064 194.019597,14.5996487 C194.034848,15.0403455 194.208209,15.5025725 194.417602,15.9044445 C194.73188,16.5075703 195.348249,16.4926051 195.668134,15.8920912 C195.850241,15.5500094 195.948995,15.1679733 196.079221,14.8019612 C196.122655,14.6799808 196.119814,14.5366819 196.186572,14.4301608 C196.298408,14.2516373 196.449043,14.0948556 196.583381,13.9288972 C196.722204,14.0603368 196.861102,14.1917765 197,14.3232161 L197,14.81735 Z M116.704092,3.60746529 C116.519475,3.7640176 116.391806,3.84665833 116.296179,3.95713217 C114.863913,5.6118786 114.281801,7.52098676 114.675228,9.6852437 C114.7533,10.1146893 115.038682,10.5034942 115.202462,10.9213487 C115.266617,11.085056 115.259338,11.2769542 115.28453,11.4559734 C115.108333,11.4684231 114.917008,11.5321745 114.758224,11.485309 C113.446848,11.0980782 112.434842,9.55029961 112.641154,8.1227973 C112.994618,5.67684638 114.262676,3.81667871 116.383385,2.54472699 C117.174521,2.07027619 117.920127,2.26281836 118.621487,2.72117031 C118.786979,2.82928299 118.934987,3.10546759 118.935701,3.30487859 C118.948831,7.19171175 118.945477,11.078688 118.928992,14.9656643 C118.924996,15.909128 118.821376,16.8451506 118.446361,17.7283689 C118.094967,18.5559925 117.573229,19.2320008 116.731068,19.6015587 C116.584487,19.6659541 116.397301,19.6374055 116.228883,19.6517156 C116.218821,19.4818549 116.156021,19.2938919 116.207046,19.1449955 C116.614959,17.953538 116.684539,16.7235149 116.688821,15.4786807 C116.701809,11.7109075 116.729141,7.94327731 116.748338,4.17557558 C116.749123,4.01709142 116.724431,3.8585357 116.704092,3.60746529 Z" id="instagram"></path>
            <path d="M33.5444807,4.00391891 L26.3096538,4.00391891 L26.3096538,6.03106437 L28.7051568,6.03106437 L28.7051568,18.5724939 L31.0290519,18.5724939 L31.0290519,6.01803335 L33.5444807,6.01803335 L33.5444807,4.00391891 Z M55.1096852,13.4753925 C55.1096852,12.5378159 55.1210405,11.683353 55.1036599,10.8294377 C55.0975188,10.5223874 55.0325155,10.214899 54.9771295,9.91047678 C54.756049,8.69443041 53.6934023,7.68709943 52.5001697,7.55394208 C50.9232905,7.3779685 49.6608834,8.00586674 49.1202325,9.28564467 C48.9443413,9.7018709 48.7924354,10.1621179 48.7905814,10.6027636 C48.7823546,12.4773694 48.7531553,14.357779 48.8945171,16.2249385 C48.9829262,17.3919269 49.7516099,18.2701522 50.983659,18.5963658 C52.2440963,18.9300258 53.4424271,18.7751865 54.3595407,17.7699361 C55.1406225,16.9139402 55.1158263,15.8760575 55.0956649,14.8168215 L52.9203155,14.8168215 C52.9203155,15.2074237 52.929701,15.5675836 52.9183457,15.9271961 C52.8962145,16.6182783 52.60538,16.9448205 52.0087637,16.9688019 C51.4261677,16.9921264 51.0174931,16.6667888 50.9779813,16.0172087 C50.9274619,15.1871653 50.9658149,14.3523038 50.9658149,13.4753925 L55.1096852,13.4753925 Z M37.1613727,7.69356019 C37.1613727,10.3135625 37.1428334,12.8679716 37.175393,15.4218333 C37.1828087,16.0030826 36.9641614,16.4176663 36.4940755,16.7139852 C36.274733,16.8521797 35.9205174,16.9852276 35.7205253,16.90737 C35.5505435,16.8412293 35.4328193,16.4693524 35.4310812,16.2318373 C35.4112674,13.585992 35.4186831,10.9401467 35.4186831,8.29430133 L35.4186831,7.70713873 L33.2220136,7.70713873 C33.2220136,10.537718 33.2176105,13.3281091 33.2268801,16.1182813 C33.2282706,16.5353835 33.2753139,16.9547854 33.3339443,17.368931 C33.5002182,18.5418327 34.4810605,19.086617 35.599209,18.5684422 C36.147855,18.314173 36.6122632,17.8977278 37.1357653,17.5404149 C37.15303,17.8747318 37.1711058,18.2251459 37.1887181,18.5669092 L39.3201526,18.5669092 L39.3201526,7.69356019 L37.1613727,7.69356019 Z M43.1825738,17.5535554 C43.4917158,17.8171325 43.7050331,18.0230008 43.9438418,18.1977698 C44.5866904,18.6680912 45.2988293,18.9148046 46.0968282,18.6099444 C46.8920462,18.3060697 47.2032739,17.6402829 47.2263321,16.9039753 C47.294348,14.719253 47.3269075,12.5327787 47.3182173,10.3470708 C47.3158999,9.77589587 47.1850823,9.18161549 46.9860171,8.63967821 C46.5988943,7.58526033 45.6384453,7.22050118 44.5773049,7.70724824 C44.0931987,7.92932316 43.6718942,8.27393351 43.1546491,8.60638887 L43.1546491,3.97150561 L41.1365357,3.97150561 L41.1365357,18.5713988 L43.1825738,18.5713988 L43.1825738,17.5535554 Z M39.65664,7.81597009e-14 C44.0021246,0.122206911 48.1287302,0.226126588 52.2540611,0.361693036 C53.5102113,0.403085699 54.7392478,0.566685274 55.7952898,1.3386913 C56.9005768,2.14683378 57.4028747,3.28031383 57.556287,4.49406061 C57.8094636,6.49755312 57.9953196,8.52119445 57.9998385,10.536842 C58.0054003,13.0281766 57.8668194,15.5253149 57.6535022,18.0095318 C57.5332288,19.4103121 57.0968611,20.7633484 55.8161465,21.7073859 C54.9556935,22.3416354 53.9650023,22.5988612 52.9137109,22.6555845 C47.1913393,22.9648249 41.4654916,23.1089327 35.7343138,22.9054735 C33.4792457,22.8255353 31.2220918,22.7764773 28.969457,22.655256 C27.53,22.5777268 26.1206693,22.3233481 25.0883806,21.2291802 C24.215993,20.3044155 23.8965385,19.1457494 23.7459071,17.9691246 C23.2928541,14.4296139 23.2825417,10.8743345 23.5184537,7.32102622 C23.6145102,5.87261151 23.705816,4.41335586 24.3081099,3.03907563 C25.028128,1.39618111 26.3820727,0.548507543 28.1903449,0.454881281 C32.0804592,0.253393183 35.9756717,0.140822659 39.65664,7.81597009e-14 Z M19.4287296,7.56869232 L21.5847287,7.56869232 L21.5847287,18.5780458 L19.4415912,18.5780458 L19.4415912,17.5602024 C18.9384823,17.9162012 18.5205381,18.2926773 18.0304066,18.5426758 C16.8438945,19.1480162 15.8372132,18.671453 15.5763891,17.4252929 C15.5279553,17.1940196 15.4933101,16.9558476 15.4928466,16.7207416 C15.4872848,13.7840526 15.4891388,10.8471446 15.4900657,7.91045555 C15.4900657,7.82055244 15.5016528,7.73075883 15.5109224,7.59727297 L17.6950779,7.59727297 L17.6950779,8.23436957 C17.6950779,10.8792294 17.6880098,13.5243082 17.7072443,16.1690584 C17.7089823,16.4097491 17.8320366,16.8117398 17.9837109,16.8519279 C18.2198546,16.9144549 18.5752288,16.7908244 18.7973523,16.6385038 C19.2283898,16.3426229 19.4522513,15.9454505 19.4437928,15.3824883 C19.4082206,13.0117181 19.4287296,10.6400717 19.4287296,8.26875395 L19.4287296,7.56869232 Z M4.08315419,9.28846988 C4.40481019,8.15750843 4.72716142,7.02665648 5.0477746,5.89547603 C5.2117311,5.31663576 5.35726422,4.73253929 5.54636458,4.16114533 C5.58993182,4.02963054 5.77370215,3.85245242 5.90034841,3.84708671 C6.60727323,3.81653498 7.31651545,3.83241312 8.0920355,3.83241312 C7.58487111,5.36996441 7.1000697,6.84422215 6.61213978,8.31760387 C6.17530868,9.63702239 5.72642706,10.9529368 5.30326865,12.276188 C5.2160183,12.5492919 5.18763007,12.8482389 5.18612376,13.1355785 C5.1758113,14.9373639 5.18090959,16.7393683 5.18090959,18.5790422 L2.88632966,18.5790422 C2.87798699,18.4067918 2.86095406,18.2153781 2.86060645,18.0240739 C2.85828904,16.6382958 2.83059603,15.2518605 2.86999194,13.8671774 C2.89420884,13.0150141 2.74253459,12.2111423 2.46896477,11.4055185 C1.65706144,9.01405185 0.872851117,6.61426291 0.0797187798,4.21710208 C0.0460005168,4.11537249 0.0318643379,4.00772966 -9.50350909e-14,3.86405989 L2.41890879,3.86405989 C2.93024451,5.66376471 3.44505634,7.47529601 3.9597523,9.28693682 C4.00088626,9.28748434 4.04202022,9.28792236 4.08315419,9.28846988 Z M11.6644565,13.1896627 C11.6644565,12.2616129 11.7050111,11.3312635 11.6423253,10.4070464 C11.6206575,10.086527 11.4166099,9.69504877 11.1576397,9.49859788 C10.9741011,9.35919877 10.4497879,9.37956659 10.2727381,9.53166821 C10.0248915,9.74465426 9.8417005,10.1439073 9.8342848,10.4677118 C9.79349845,12.2500054 9.80751875,14.0337226 9.82269777,15.8166733 C9.8248993,16.0619631 9.89303105,16.3279493 10.0098283,16.5466296 C10.2373976,16.9728207 10.9008711,17.115286 11.2392124,16.7717707 C11.4644643,16.5431255 11.6261034,16.1770523 11.6451062,15.8634317 C11.6984065,14.9746939 11.6637613,14.0812475 11.6644565,13.1896627 Z M13.9240436,13.1881297 C13.8687735,14.278027 13.8767685,15.3749325 13.7422431,16.4560695 C13.5730724,17.8145811 12.2932847,18.8068005 10.8531325,18.8156703 C9.24995078,18.8255257 7.9787375,17.9086454 7.74108748,16.4989952 C7.62962023,15.8381361 7.61108098,15.1571283 7.61745385,14.4858663 C7.63228525,12.9384596 7.60528746,11.3842637 7.75360147,9.84638385 C7.86924005,8.64610612 8.62506214,7.7872631 9.94169658,7.54197324 C11.2114035,7.30544374 12.4446114,7.46980984 13.1734357,8.57284767 C13.5795611,9.18749587 13.7437494,9.98895858 13.8458311,10.7274563 C13.9572984,11.5341752 13.8710909,12.3654231 13.8710909,13.1859396 C13.888819,13.1867061 13.9064313,13.1873631 13.9240436,13.1881297 Z M43.1687273,13.0849218 C43.1694226,12.1184359 43.1659464,11.1519501 43.1709289,10.1854642 C43.173478,9.69893618 43.5332554,9.37403662 44.1282494,9.3139187 C44.6427137,9.26190411 44.996234,9.43962976 45.0884668,9.95408143 C45.1203311,10.1323546 45.1518478,10.3135844 45.1524272,10.4936096 C45.1574096,12.2259692 45.1582207,13.9584384 45.1526589,15.690798 C45.1519637,15.8885629 45.111525,16.0872039 45.076648,16.2834358 C44.9880072,16.7827759 44.6552277,17.0039748 44.138446,16.9617061 C43.5223635,16.9112245 43.1709289,16.5679282 43.1689591,16.0391315 C43.1655988,15.0543584 43.1680321,14.0696948 43.1687273,13.0849218 Z M52.9016719,11.8151963 L50.9828595,11.8151963 C50.9828595,11.1936493 50.9426525,10.5976169 50.99491,10.0088117 C51.0414898,9.48450466 51.4388092,9.29977074 51.9740142,9.30064677 C52.5416629,9.30163231 52.8495303,9.58338713 52.890896,10.0769235 C52.9375917,10.6338629 52.9016719,11.1969345 52.9016719,11.8151963 Z" id="youtube"></path>
        </g>
    </g>
</svg>